<svg xmlns="http://www.w3.org/2000/svg" width="1200" height="630" viewBox="0 0 1200 630" role="img" aria-labelledby="title description">
  <title id="title">React Native Image Compression Kit</title>
  <desc id="description">Capability-aware native image compression for Android and iOS.</desc>
  <defs>
    <linearGradient id="bg" x1="80" y1="40" x2="1120" y2="590" gradientUnits="userSpaceOnUse">
      <stop stop-color="#0b1020"/>
      <stop offset="1" stop-color="#102a43"/>
    </linearGradient>
    <linearGradient id="accent" x1="160" y1="140" x2="930" y2="500" gradientUnits="userSpaceOnUse">
      <stop stop-color="#2dd4bf"/>
      <stop offset="1" stop-color="#60a5fa"/>
    </linearGradient>
  </defs>
  <rect width="1200" height="630" rx="40" fill="url(#bg)"/>
  <circle cx="1040" cy="100" r="250" fill="#14b8a6" opacity=".08"/>
  <circle cx="1080" cy="580" r="300" fill="#2563eb" opacity=".1"/>
  <rect x="92" y="92" width="92" height="92" rx="24" fill="#111827" stroke="#2dd4bf" stroke-width="4"/>
  <path d="m111 163 21-24 16 16 11-14 10 22h-58Z" fill="url(#accent)"/>
  <circle cx="126" cy="122" r="8" fill="#99f6e4"/>
  <text x="92" y="270" fill="#f8fafc" font-family="ui-sans-serif, system-ui, sans-serif" font-size="62" font-weight="760">React Native Image</text>
  <text x="92" y="345" fill="url(#accent)" font-family="ui-sans-serif, system-ui, sans-serif" font-size="62" font-weight="760">Compression Kit</text>
  <text x="96" y="420" fill="#cbd5e1" font-family="ui-sans-serif, system-ui, sans-serif" font-size="30">Capability-aware native compression for Android and iOS.</text>
  <g transform="translate(96 486)" font-family="ui-sans-serif, system-ui, sans-serif" font-size="22" font-weight="650">
    <rect width="178" height="52" rx="26" fill="#134e4a"/>
    <text x="28" y="34" fill="#ccfbf1">Target size</text>
    <rect x="194" width="154" height="52" rx="26" fill="#1e3a8a"/>
    <text x="222" y="34" fill="#dbeafe">Metadata</text>
    <rect x="364" width="230" height="52" rx="26" fill="#1f2937"/>
    <text x="392" y="34" fill="#e5e7eb">Runtime capability</text>
  </g>
</svg>
